<svg width="46" height="47" viewBox="0 0 46 47" fill="none" xmlns="http://www.w3.org/2000/svg">
<path fill-rule="evenodd" clip-rule="evenodd" d="M23 13.1393C20.2373 13.1393 17.5878 14.228 15.6343 16.1659C13.6808 18.1038 12.5833 20.7322 12.5833 23.4728C12.5833 26.2134 13.6808 28.8417 15.6343 30.7796C17.5878 32.7175 20.2373 33.8062 23 33.8062C25.7627 33.8062 28.4122 32.7175 30.3657 30.7796C32.3192 28.8417 33.4167 26.2134 33.4167 23.4728C33.4167 20.7322 32.3192 18.1038 30.3657 16.1659C28.4122 14.228 25.7627 13.1393 23 13.1393ZM16.75 23.4728C16.75 25.1171 17.4085 26.6941 18.5806 27.8569C19.7527 29.0196 21.3424 29.6728 23 29.6728C24.6576 29.6728 26.2473 29.0196 27.4194 27.8569C28.5915 26.6941 29.25 25.1171 29.25 23.4728C29.25 21.8284 28.5915 20.2514 27.4194 19.0887C26.2473 17.9259 24.6576 17.2727 23 17.2727C21.3424 17.2727 19.7527 17.9259 18.5806 19.0887C17.4085 20.2514 16.75 21.8284 16.75 23.4728Z" fill="#4694DC"/>
<path d="M35.5 9.00592C34.9475 9.00592 34.4176 9.22366 34.0269 9.61124C33.6362 9.99882 33.4167 10.5245 33.4167 11.0726C33.4167 11.6207 33.6362 12.1464 34.0269 12.534C34.4176 12.9216 34.9475 13.1393 35.5 13.1393C36.0526 13.1393 36.5825 12.9216 36.9732 12.534C37.3639 12.1464 37.5834 11.6207 37.5834 11.0726C37.5834 10.5245 37.3639 9.99882 36.9732 9.61124C36.5825 9.22366 36.0526 9.00592 35.5 9.00592Z" fill="#4694DC"/>
<path fill-rule="evenodd" clip-rule="evenodd" d="M8.41668 0.739166C6.20654 0.739166 4.08692 1.61013 2.52412 3.16045C0.961317 4.71077 0.0833435 6.81345 0.0833435 9.00593V37.9396C0.0833435 40.1321 0.961317 42.2348 2.52412 43.7851C4.08692 45.3354 6.20654 46.2064 8.41668 46.2064H37.5833C39.7935 46.2064 41.9131 45.3354 43.4759 43.7851C45.0387 42.2348 45.9167 40.1321 45.9167 37.9396V9.00593C45.9167 6.81345 45.0387 4.71077 43.4759 3.16045C41.9131 1.61013 39.7935 0.739166 37.5833 0.739166H8.41668ZM37.5833 4.87255H8.41668C7.31161 4.87255 6.2518 5.30803 5.4704 6.08319C4.689 6.85835 4.25001 7.90969 4.25001 9.00593V37.9396C4.25001 39.0359 4.689 40.0872 5.4704 40.8624C6.2518 41.6375 7.31161 42.073 8.41668 42.073H37.5833C38.6884 42.073 39.7482 41.6375 40.5296 40.8624C41.311 40.0872 41.75 39.0359 41.75 37.9396V9.00593C41.75 7.90969 41.311 6.85835 40.5296 6.08319C39.7482 5.30803 38.6884 4.87255 37.5833 4.87255Z" fill="#4694DC"/>
</svg>
