<svg xmlns="http://www.w3.org/2000/svg" width="50" height="51" fill="none"><path fill="#4694DC" fill-rule="evenodd" d="M25 15.14a10.46 10.46 0 0 0-7.366 3.026 10.292 10.292 0 0 0-3.05 7.307c0 2.74 1.097 5.369 3.05 7.307A10.46 10.46 0 0 0 25 35.806a10.46 10.46 0 0 0 7.366-3.026 10.292 10.292 0 0 0 3.05-7.307c0-2.74-1.097-5.37-3.05-7.307A10.46 10.46 0 0 0 25 15.139Zm-6.25 10.333c0 1.644.659 3.221 1.83 4.384A6.276 6.276 0 0 0 25 31.673a6.276 6.276 0 0 0 4.42-1.816 6.175 6.175 0 0 0 1.83-4.384 6.175 6.175 0 0 0-1.83-4.384A6.275 6.275 0 0 0 25 19.273a6.275 6.275 0 0 0-4.42 1.816 6.175 6.175 0 0 0-1.83 4.384Z" clip-rule="evenodd"/><path fill="#4694DC" d="M37.5 11.006c-.553 0-1.082.218-1.473.605a2.059 2.059 0 0 0 0 2.923 2.092 2.092 0 0 0 2.946 0 2.059 2.059 0 0 0 0-2.923 2.092 2.092 0 0 0-1.473-.605Z"/><path fill="#4694DC" fill-rule="evenodd" d="M10.417 2.74c-2.21 0-4.33.87-5.893 2.42a8.233 8.233 0 0 0-2.44 5.846V39.94c0 2.192.877 4.295 2.44 5.845a8.368 8.368 0 0 0 5.893 2.421h29.166c2.21 0 4.33-.87 5.893-2.42a8.233 8.233 0 0 0 2.44-5.846V11.006a8.233 8.233 0 0 0-2.44-5.846 8.367 8.367 0 0 0-5.893-2.42H10.417Zm29.166 4.133H10.417a4.184 4.184 0 0 0-2.947 1.21 4.117 4.117 0 0 0-1.22 2.923V39.94c0 1.096.439 2.147 1.22 2.922a4.184 4.184 0 0 0 2.947 1.211h29.166a4.184 4.184 0 0 0 2.947-1.21 4.117 4.117 0 0 0 1.22-2.923V11.006a4.117 4.117 0 0 0-1.22-2.923 4.184 4.184 0 0 0-2.947-1.21Z" clip-rule="evenodd"/></svg>