<svg xmlns="http://www.w3.org/2000/svg" width="43" height="37" fill="none">
<path fill="#4694DC" d="M31.36.428H.86v5.043h30.5V.428ZM31.36 10.514H.86v5.042h30.5v-5.042ZM.86 20.599h20.332v5.043H.86v-5.043Z"/>
<path fill="#4694DC" fill-rule="evenodd" d="M25.966 20.291a7.52 7.52 0 0 0-.844 9.725 7.626 7.626 0 0 0 4.31 2.955 7.681 7.681 0 0 0 5.214-.501l3.901 3.867 3.594-3.565-3.901-3.87c.773-1.61.948-3.44.494-5.166a7.566 7.566 0 0 0-2.977-4.266 7.672 7.672 0 0 0-9.791.822Zm3.596 7.133a2.545 2.545 0 0 0 1.798.738 2.56 2.56 0 0 0 1.797-.739 2.52 2.52 0 0 0 .744-1.783 2.505 2.505 0 0 0-.745-1.783 2.553 2.553 0 0 0-3.595 0 2.512 2.512 0 0 0 .001 3.566Z" clip-rule="evenodd"/></svg>