<svg xmlns="http://www.w3.org/2000/svg" width="42" height="42" fill="none"><path fill="#4694DC" fill-rule="evenodd" d="M38.528.652A2.002 2.002 0 0 0 37.113.07a2.014 2.014 0 0 0-1.415.582l-1.744 1.73a6.046 6.046 0 0 0-3.602-.495 6.018 6.018 0 0 0-3.228 1.66L5.91 24.588l11.314 11.224L38.44 14.768a5.915 5.915 0 0 0 1.172-6.773l1.746-1.732a1.976 1.976 0 0 0 0-2.806L38.528.652Zm-8.536 16.884L17.224 30.202l-5.656-5.613 12.766-12.664 5.658 5.613v-.002Zm3.636-3.607 1.98-1.964a1.983 1.983 0 0 0 .587-1.404 1.97 1.97 0 0 0-.587-1.404l-2.826-2.805a2.002 2.002 0 0 0-1.415-.582 2.014 2.014 0 0 0-1.415.582l-1.98 1.964 5.656 5.615v-.002Z" clip-rule="evenodd"/><path fill="#4694DC" d="m0 41.636 4.244-15.432 11.312 11.224L0 41.636Z"/></svg>